<svg id="Capa_1" enable-background="new 0 0 512 512" height="512" viewBox="0 0 512 512" width="512" xmlns="http://www.w3.org/2000/svg"><g><g><path d="m163.49 512c-4.24 0-8.097-2.786-9.46-6.789-1.322-3.882-.064-8.344 3.12-10.938 3.291-2.681 8.012-2.986 11.623-.758 3.493 2.155 5.343 6.413 4.527 10.436-.936 4.613-5.088 8.049-9.81 8.049z"/><path d="m429.454 239.017c-.841-3.795-3.806-6.76-7.602-7.601-.19-.042-.827-.18-1.84-.368 18.153-23.462 9.827-62.338 9.442-64.077-.841-3.795-3.806-6.76-7.602-7.601-1.118-.248-17.612-3.783-35.482-1.438 3.873-7.102 6.486-15.039 6.486-23.531 0-32.124-37.386-56.32-38.977-57.334-3.279-2.089-7.471-2.089-10.75 0-1.591 1.014-38.976 25.211-38.976 57.334 0 8.491 2.612 16.428 6.485 23.53-17.87-2.346-34.364 1.19-35.481 1.438-3.796.84-6.761 3.805-7.602 7.601-.385 1.739-8.711 40.615 9.441 64.077-1.013.188-1.649.325-1.839.368-3.796.84-6.761 3.805-7.602 7.601-.391 1.764-8.957 41.762 10.256 65.098-1.488.261-2.417.462-2.654.514-3.796.84-6.761 3.805-7.602 7.601-.408 1.843-9.733 45.387 12.98 68.102v.001c12.33 12.329 30.794 15.218 45.397 15.218 4.702 0 9.004-.3 12.571-.68v107.13c0 5.523 4.478 10 10 10s10-4.477 10-10v-107.129c3.567.381 7.869.68 12.571.68 14.602 0 33.069-2.891 45.396-15.219v.001c22.715-22.714 13.39-66.259 12.981-68.102-.841-3.795-3.806-6.76-7.602-7.601-.237-.053-1.167-.253-2.655-.514 19.217-23.337 10.651-63.334 10.26-65.099zm-143.442 10.855c12.294-1.508 32.88-1.558 43.105 8.667 7.072 7.072 9.228 19.097 9.388 29.906v2.688c-.056 3.83-.342 7.432-.72 10.512-12.292 1.506-32.88 1.559-43.105-8.667-10.229-10.23-10.174-30.822-8.668-43.106zm73.194 51.771c-.334-2.673-.598-5.74-.701-9.008v-5.799c.341-10.355 2.629-21.538 9.389-28.297 10.228-10.229 30.818-10.176 43.104-8.668 1.507 12.294 1.56 32.88-8.668 43.107-10.233 10.234-30.843 10.173-43.124 8.665zm51.792-123.818c1.507 12.294 1.56 32.88-8.668 43.106-10.233 10.234-30.843 10.174-43.124 8.666-.334-2.673-.598-5.74-.701-9.008v-5.799c.341-10.355 2.629-21.538 9.389-28.297 10.227-10.228 30.818-10.175 43.104-8.668zm-62.478-80.044c9.755 7.589 24.337 22.067 24.337 36.622 0 14.473-14.615 29.003-24.366 36.622-9.754-7.589-24.336-22.067-24.336-36.622-.001-14.474 14.614-29.004 24.365-36.622zm-62.508 80.045c12.29-1.508 32.879-1.559 43.105 8.668 7.072 7.072 9.228 19.097 9.388 29.906v2.688c-.056 3.83-.342 7.432-.72 10.512-12.292 1.507-32.88 1.559-43.105-8.668-10.229-10.229-10.174-30.822-8.668-43.106zm51.773 197.032c-12.292 1.507-32.88 1.559-43.105-8.668-10.228-10.229-10.174-30.821-8.668-43.105 12.29-1.506 32.879-1.559 43.105 8.667 7.072 7.072 9.228 19.097 9.388 29.906v2.688c-.056 3.83-.342 7.432-.72 10.512zm64.545-8.668c-10.233 10.234-30.843 10.174-43.124 8.667-.334-2.673-.598-5.74-.701-9.008v-5.799c.341-10.355 2.629-21.538 9.389-28.297 10.233-10.234 30.843-10.174 43.124-8.666 1.531 12.263 1.604 32.811-8.688 43.103z"/><path d="m244.443 163.516c-.841-3.795-3.806-6.76-7.602-7.601-.19-.042-.827-.18-1.84-.368 18.152-23.462 9.826-62.339 9.441-64.078-.841-3.795-3.806-6.76-7.602-7.601-1.118-.248-17.611-3.784-35.481-1.438 3.873-7.102 6.485-15.039 6.485-23.53 0-32.123-37.385-56.32-38.976-57.334-3.278-2.089-7.47-2.09-10.75 0-1.591 1.014-38.976 25.211-38.976 57.334 0 8.491 2.613 16.429 6.485 23.531-17.87-2.346-34.364 1.189-35.481 1.438-3.796.84-6.761 3.805-7.602 7.601-.385 1.739-8.711 40.616 9.442 64.077-1.013.188-1.65.326-1.84.368-3.796.84-6.761 3.805-7.602 7.601-.391 1.764-8.957 41.762 10.256 65.098-1.488.261-2.418.462-2.655.515-3.796.84-6.761 3.805-7.602 7.601-.387 1.747-8.791 40.989 9.704 64.414-1.166.212-1.896.37-2.103.416-3.796.84-6.761 3.805-7.602 7.601-.408 1.843-9.733 45.388 12.981 68.102 12.329 12.329 30.793 15.219 45.397 15.219 4.702 0 9.004-.3 12.571-.681v64.812c0 5.523 4.478 10 10 10 5.523 0 10-4.477 10-10v-64.811c3.567.381 7.869.68 12.571.68 14.603 0 33.068-2.891 45.396-15.218 22.714-22.714 13.389-66.259 12.98-68.102-.841-3.795-3.806-6.76-7.602-7.601-.206-.046-.937-.204-2.102-.416 18.495-23.425 10.091-62.666 9.704-64.414-.841-3.795-3.806-6.76-7.602-7.601-.237-.053-1.166-.253-2.654-.514 19.218-23.338 10.652-63.335 10.261-65.1zm-27.123 53.96c-10.229 10.231-30.824 10.176-43.105 8.669-.38-3.096-.667-6.719-.721-10.569v-2.588c.154-10.822 2.307-22.869 9.388-29.95 10.234-10.233 30.843-10.174 43.124-8.666 1.532 12.264 1.606 32.812-8.686 43.104zm0 73.213c-10.234 10.236-30.846 10.174-43.124 8.667-.334-2.672-.598-5.738-.701-9.005v-5.812c.342-10.352 2.631-21.53 9.388-28.287 10.234-10.235 30.842-10.176 43.124-8.667 1.531 12.264 1.605 32.813-8.687 43.104zm-116.319-43.105c12.292-1.506 32.879-1.558 43.105 8.668 7.071 7.071 9.228 19.094 9.389 29.902v2.701c-.056 3.835-.343 7.441-.722 10.522-12.266 1.53-32.813 1.603-43.104-8.687v-.001c-10.229-10.229-10.174-30.821-8.668-43.105zm.002-73.233c12.263-1.529 32.813-1.605 43.104 8.687 7.071 7.071 9.228 19.094 9.389 29.902v2.701c-.056 3.835-.343 7.441-.722 10.523-12.266 1.53-32.813 1.604-43.104-8.687v-.001c-10.235-10.234-10.175-30.843-8.667-43.125zm125.004-72.025c1.531 12.264 1.605 32.813-8.686 43.104-10.229 10.231-30.824 10.175-43.105 8.669-.38-3.096-.667-6.719-.721-10.569v-2.588c.154-10.822 2.307-22.869 9.388-29.95 10.234-10.235 30.846-10.174 43.124-8.666zm-62.513-80.035c9.759 7.628 24.352 22.148 24.352 36.61 0 14.466-14.599 28.988-24.35 36.61-9.759-7.628-24.352-22.147-24.352-36.61 0-14.466 14.599-28.988 24.35-36.61zm-62.491 80.014c12.267-1.531 32.813-1.604 43.104 8.688 7.071 7.071 9.228 19.094 9.389 29.902v2.701c-.056 3.835-.343 7.441-.722 10.523-12.266 1.53-32.813 1.604-43.104-8.687v-.001c-10.235-10.235-10.175-30.844-8.667-43.126zm51.77 269.501c-12.266 1.53-32.813 1.604-43.104-8.687-10.234-10.234-10.175-30.843-8.667-43.125 12.267-1.531 32.813-1.604 43.104 8.688 7.071 7.071 9.228 19.094 9.389 29.902v2.701c-.056 3.833-.343 7.44-.722 10.521zm64.547-8.687c-10.234 10.235-30.846 10.174-43.124 8.667-.334-2.672-.598-5.738-.701-9.005v-5.812c.342-10.352 2.631-21.53 9.388-28.287 10.234-10.236 30.846-10.175 43.124-8.667 1.531 12.264 1.605 32.812-8.687 43.104z"/></g></g></svg>