<?xml version="1.0" encoding="iso-8859-1"?>
<!-- Generator: Adobe Illustrator 19.0.0, SVG Export Plug-In . SVG Version: 6.00 Build 0)  -->
<svg version="1.1" id="Capa_1" xmlns="http://www.w3.org/2000/svg" xmlns:xlink="http://www.w3.org/1999/xlink" x="0px" y="0px"
	 viewBox="0 0 512 512" style="enable-background:new 0 0 512 512;" xml:space="preserve">
<g>
	<g>
		<path d="M400.961,209.848c-0.237-4.408-2.98-7.047-6.212-9.633c-1.22-0.976-14.666-11.734-25.266-20.215h21.49
			c5.522,0,9.999-4.477,9.999-10c0-57.027-10.991-120.937-84.992-142.465V10c0-5.523-4.477-10-9.999-10h-99.99
			c-5.522,0-9.999,4.477-9.999,10v17.559C122.013,49.094,111,112.979,111,170c0,5.523,4.477,10,9.999,10h21.49l-27.737,22.191
			c-0.014,0.011-0.025,0.025-0.039,0.036C112.45,204.061,111,206.86,111,210c0,0,0.008,252.111,0.008,252.167
			C111.189,489.675,133.614,512,161.162,512H350.81c27.659,0,50.162-22.504,50.162-50.167
			C400.971,461.023,401.043,211.372,400.961,209.848z M215.99,20h79.992v20H215.99V20z M131.112,160.001
			c0.639-26.241,4.344-56.789,20.548-79.701c10.331-14.608,25.02-25.155,44.332-31.792V50c0,5.523,4.477,10,9.999,10h99.99
			c5.522,0,9.999-4.477,9.999-10v-1.481c19.309,6.636,34.002,17.176,44.332,31.782c16.204,22.912,19.909,53.459,20.548,79.7h-29.883
			v-30c0-5.523-4.477-10-9.999-10h-36.003c-4.645-22.795-24.845-40-48.989-40s-44.344,17.205-48.989,40h-36.003
			c-5.522,0-9.999,4.477-9.999,10v30H131.112z M271.485,160h-90.491v-20h149.985v30c0,3.038,1.381,5.911,3.753,7.809L362.467,200
			H149.504l24.998-20h96.983c5.509,0,9.999-4.49,9.999-10S276.994,160,271.485,160z M227.702,120c4.127-11.641,15.247-20,28.284-20
			c13.036,0,24.157,8.359,28.284,20H227.702z M380.973,461.833c0,16.634-13.531,30.167-30.164,30.167H161.162
			c-13.066,0-24.215-8.354-28.396-20h128.22c5.509,0,9.999-4.49,9.999-10s-4.49-10-9.999-10H130.998V220h249.975V461.833z"/>
	</g>
</g>
<g>
	<g>
		<path d="M300.981,452c-5.51,0-9.999,4.49-9.999,10s4.489,10,9.999,10c5.509,0,9.999-4.49,9.999-10S306.49,452,300.981,452z"/>
	</g>
</g>
<g>
</g>
<g>
</g>
<g>
</g>
<g>
</g>
<g>
</g>
<g>
</g>
<g>
</g>
<g>
</g>
<g>
</g>
<g>
</g>
<g>
</g>
<g>
</g>
<g>
</g>
<g>
</g>
<g>
</g>
</svg>
