<svg id="Layer_1" enable-background="new 0 0 512 512" height="512" viewBox="0 0 512 512" width="512" xmlns="http://www.w3.org/2000/svg"><g><circle cx="352.41" cy="79.248" r="15"/><circle cx="159.589" cy="272.068" r="15"/><circle cx="352.41" cy="159.59" r="15"/><circle cx="159.589" cy="352.41" r="15"/><circle cx="288.136" cy="119.418" r="15"/><circle cx="95.316" cy="312.24" r="15"/><path d="m465.316 46.684c-62.244-62.245-163.526-62.246-225.776.001-23.047 23.056-38.309 52.146-44.129 84.095-6.022 32.632-31.981 58.598-64.596 64.624-31.981 5.826-61.071 21.087-84.13 44.137-62.246 62.246-62.246 163.528 0 225.774s163.528 62.246 225.774 0c23.05-23.059 38.312-52.149 44.137-84.13 6.025-32.615 31.992-58.574 64.624-64.596 31.948-5.82 61.039-21.082 84.095-44.129 62.247-62.25 62.246-163.532.001-225.776zm-21.215 204.563c-18.72 18.712-42.324 31.103-68.258 35.828-44.842 8.274-80.479 43.899-88.747 88.661-4.741 26.026-17.135 49.644-35.854 68.37-50.565 50.565-132.768 50.57-183.344-.004-50.549-50.549-50.549-132.799 0-183.348 18.723-18.715 42.339-31.108 68.293-35.836 44.835-8.282 80.461-43.919 88.723-88.694 4.737-26.001 17.127-49.606 35.844-68.329 50.566-50.564 132.772-50.574 183.346.002 50.547 50.548 50.546 132.798-.003 183.35z"/></g></svg>