<?xml version="1.0" encoding="iso-8859-1"?>
<!-- Generator: Adobe Illustrator 19.0.0, SVG Export Plug-In . SVG Version: 6.00 Build 0)  -->
<svg xmlns="http://www.w3.org/2000/svg" xmlns:xlink="http://www.w3.org/1999/xlink" version="1.1" id="Layer_1" x="0px" y="0px" viewBox="0 0 505.003 505.003" style="enable-background:new 0 0 505.003 505.003;" xml:space="preserve" width="512" height="512">
<g>
	<path d="M502.566,272.141l-25.009-22.882c7.472-5.56,14.871-10.472,22.767-13.681c2.384-0.969,4.104-3.091,4.559-5.624   c0.455-2.532-0.421-5.121-2.318-6.858L355.104,88.16c-28.09-25.704-64.528-39.859-102.604-39.859S177.986,62.457,149.897,88.16   l-26.739,24.469c-3.056,2.796-3.266,7.541-0.47,10.596c2.797,3.056,7.539,3.266,10.597,0.47l26.739-24.469   c25.317-23.167,58.159-35.926,92.477-35.926s67.159,12.759,92.477,35.926l139.355,127.521   c-8.829,5.023-16.999,11.361-24.971,17.545c-12.618,9.788-24.535,19.033-37.918,22.552c-13.574,3.569-28.679,1.385-44.671-0.928   c-13.746-1.987-27.96-4.044-41.68-2.27c-13.802,1.783-27.043,7.395-39.849,12.823c-14.804,6.275-28.787,12.202-42.744,12.202   s-27.94-5.927-42.744-12.202c-12.806-5.428-26.046-11.04-39.848-12.823c-13.719-1.773-27.934,0.283-41.681,2.27   c-15.991,2.313-31.097,4.497-44.671,0.928c-13.382-3.519-25.3-12.764-37.917-22.552c-7.973-6.184-16.143-12.521-24.972-17.545   l91.133-83.393c3.056-2.796,3.266-7.541,0.47-10.596c-2.798-3.056-7.542-3.266-10.597-0.47l-99.237,90.81   c-1.897,1.737-2.773,4.325-2.318,6.858c0.454,2.532,2.175,4.655,4.559,5.624c7.895,3.209,15.293,8.12,22.765,13.68L2.44,272.142   c-1.897,1.737-2.772,4.325-2.318,6.857c0.145,0.81,0.433,1.571,0.818,2.273c0.023,0.051,0.038,0.103,0.066,0.152l26.015,45.063   c37,64.095,96.761,108.114,168.274,123.947c18.977,4.202,38.19,6.268,57.287,6.268c53.313,0,105.713-16.102,149.487-46.793   c3.392-2.378,4.213-7.055,1.835-10.447c-2.376-3.391-7.054-4.213-10.446-1.835c-56.02,39.277-127.067,53.186-194.921,38.163   c-67.355-14.913-123.655-56.393-158.526-116.8l-11.469-19.868c2.613,1.963,5.238,4,7.9,6.065   C49.694,315.468,63.4,326.1,79.746,330.398c16.522,4.344,33.865,1.834,50.636-0.592c13.329-1.929,25.917-3.751,37.601-2.243   c11.767,1.521,23.499,6.494,35.921,11.76c15.532,6.584,31.594,13.392,48.6,13.392c17.002,0,33.064-6.809,48.597-13.393   c12.422-5.266,24.154-10.239,35.914-11.759c11.684-1.509,24.278,0.313,37.611,2.243c16.772,2.427,34.115,4.935,50.636,0.592   c16.343-4.297,30.044-14.926,43.293-25.206c2.666-2.068,5.294-4.108,7.911-6.074l-11.475,19.878   c-13.502,23.389-30.29,44.086-49.896,61.519c-3.096,2.752-3.374,7.493-0.621,10.588c1.481,1.667,3.539,2.517,5.607,2.517   c1.772,0,3.552-0.625,4.98-1.895c20.809-18.501,38.614-40.448,52.92-65.23l26.019-45.072c0.022-0.039,0.034-0.081,0.053-0.121   c0.394-0.71,0.687-1.482,0.834-2.304C505.34,276.466,504.464,273.878,502.566,272.141z M459.359,293.34   c-12.615,9.787-24.531,19.032-37.913,22.55c-13.573,3.569-28.68,1.383-44.673-0.931c-13.746-1.989-27.957-4.045-41.682-2.274   c-13.8,1.784-27.041,7.396-39.846,12.825c-14.806,6.276-28.789,12.204-42.743,12.204c-13.958,0-27.941-5.927-42.745-12.203   c-12.806-5.429-26.048-11.042-39.854-12.826c-13.712-1.77-27.926,0.286-41.669,2.274c-15.993,2.314-31.1,4.5-44.674,0.931   c-13.386-3.52-25.306-12.767-37.926-22.557c-7.971-6.183-16.139-12.52-24.966-17.543l18.859-17.26   c12.304,9.498,25.134,18.855,40.214,22.821c16.519,4.343,33.86,1.836,50.633-0.589c13.334-1.927,25.929-3.749,37.611-2.24   c11.763,1.52,23.494,6.493,35.915,11.757c15.533,6.583,31.594,13.391,48.599,13.391s33.065-6.808,48.598-13.391   c12.422-5.265,24.154-10.237,35.917-11.757c11.687-1.51,24.277,0.312,37.61,2.24c16.771,2.425,34.112,4.933,50.633,0.589   c15.08-3.966,27.91-13.322,40.213-22.82l18.863,17.26C475.503,280.816,467.332,287.155,459.359,293.34z"/>
	<path d="M260,248.587V113.058c0-4.142-3.357-7.5-7.5-7.5s-7.5,3.358-7.5,7.5v135.529c0,4.142,3.357,7.5,7.5,7.5   S260,252.729,260,248.587z"/>
	<path d="M97.193,233.638c1.373,1.077,3.005,1.599,4.624,1.599c2.225,0,4.427-0.986,5.906-2.872l52.127-66.461   c2.557-3.259,1.986-7.974-1.272-10.53c-3.26-2.556-7.974-1.986-10.53,1.273l-52.127,66.461   C93.364,226.367,93.935,231.082,97.193,233.638z"/>
	<path d="M403.183,235.237c1.619,0,3.251-0.522,4.624-1.599c3.259-2.556,3.829-7.271,1.272-10.53l-52.126-66.461   c-2.556-3.259-7.27-3.829-10.53-1.273c-3.259,2.556-3.829,7.271-1.272,10.53l52.126,66.461   C398.756,234.252,400.958,235.237,403.183,235.237z"/>
</g>















</svg>
