<?xml version="1.0" encoding="iso-8859-1"?>
<!-- Generator: Adobe Illustrator 19.0.0, SVG Export Plug-In . SVG Version: 6.00 Build 0)  -->
<svg version="1.1" id="Capa_1" xmlns="http://www.w3.org/2000/svg" xmlns:xlink="http://www.w3.org/1999/xlink" x="0px" y="0px"
	 viewBox="0 0 512.001 512.001" style="enable-background:new 0 0 512.001 512.001;" xml:space="preserve">
<g>
	<g>
		<path d="M507.607,4.395c-5.857-5.859-15.355-5.859-21.214-0.002l-37.416,37.415c-17.913-1.253-62.436-1.204-89.864,26.224
			c-27.427,27.427-27.476,71.95-26.224,89.863l-14.999,14.999c0.296-3.104,0.46-6.251,0.46-9.44
			c0-39.687-24.282-73.196-39.023-89.883l32.057-32.056c5.858-5.858,5.858-15.355,0-21.213c-5.856-5.858-15.354-5.858-21.213,0
			l-42.426,42.428c-0.205,0.205-0.387,0.425-0.578,0.639c-7.689,7.249-48.55,48.192-48.809,99.596
			c-7.873-9.5-14.143-15.195-14.853-15.831c-5.696-5.1-14.316-5.1-20.013,0c-2.035,1.823-49.706,45.152-49.987,100.683
			c-7.873-9.5-14.143-15.194-14.853-15.83c-5.696-5.1-14.316-5.1-20.013,0c-2.041,1.828-49.994,45.407-49.994,101.175
			c0,39.719,24.32,73.248,39.058,89.922l-63.31,63.311c-5.858,5.858-5.858,15.355,0,21.213c5.857,5.858,15.355,5.858,21.213,0
			l63.31-63.311c16.673,14.738,50.203,39.058,89.922,39.058c55.768,0,99.347-47.952,101.175-49.994
			c5.101-5.696,5.101-14.317,0-20.013c-0.636-0.71-6.331-6.98-15.831-14.853c55.531-0.281,98.861-47.952,100.683-49.987
			c5.101-5.696,5.101-14.316,0-20.012c-0.636-0.71-6.331-6.981-15.831-14.853c38.088-0.193,73.028-22.179,100.236-49.387
			l42.426-42.426c5.858-5.858,5.858-15.355,0-21.213c-5.857-5.858-15.355-5.858-21.213,0l-32.056,32.057
			c-16.686-14.741-50.195-39.024-89.883-39.024c-3.189,0-6.335,0.164-9.439,0.46l14.999-14.999
			c3.133,0.219,7.068,0.399,11.597,0.399c21.358,0,55.635-3.991,78.266-26.623c27.427-27.427,27.476-71.95,26.224-89.863
			l37.416-37.416C513.465,19.75,513.465,10.253,507.607,4.395z M258.38,95.177c11.852,13.769,29.972,39.525,29.972,68.279
			c0,28.597-18.178,54.459-30.028,68.279c-11.852-13.769-29.972-39.525-29.972-68.279
			C228.352,134.859,246.529,108.997,258.38,95.177z M233.493,248.799c6.908,8.336,12.576,13.737,14.343,15.366
			c1.629,1.766,7.03,7.435,15.366,14.343c-12.929,0.065-25.197,2.695-36.434,6.725C230.797,273.997,233.428,261.727,233.493,248.799
			z M173.527,180.029c11.852,13.769,29.972,39.525,29.972,68.279c0,28.597-18.178,54.459-30.028,68.279
			c-11.852-13.769-29.972-39.525-29.972-68.279C143.498,219.71,161.677,193.849,173.527,180.029z M148.64,333.653
			c6.906,8.333,12.573,13.733,14.341,15.364c1.627,1.765,7.029,7.434,15.367,14.344c-12.929,0.065-25.197,2.695-36.433,6.725
			C145.943,358.849,148.574,346.581,148.64,333.653z M88.618,401.44c-11.852-13.769-29.972-39.525-29.972-68.279
			c0-28.598,18.178-54.46,30.028-68.279c11.852,13.769,29.972,39.525,29.972,68.279C118.646,361.758,100.469,387.62,88.618,401.44z
			 M178.839,453.354c-28.597,0-54.458-18.178-68.279-30.028c13.769-11.851,39.525-29.972,68.279-29.972
			c28.597,0,54.458,18.178,68.279,30.028C233.35,435.234,207.594,453.354,178.839,453.354z M263.692,368.5
			c-28.597,0-54.458-18.178-68.279-30.028c13.769-11.851,39.525-29.972,68.279-29.972c28.598,0,54.459,18.178,68.278,30.028
			C318.201,350.38,292.445,368.5,263.692,368.5z M348.544,223.648c28.597-0.001,54.459,18.177,68.278,30.028
			c-13.769,11.851-39.524,29.972-68.278,29.972c-28.597,0-54.458-18.178-68.278-30.028
			C294.036,241.769,319.79,223.648,348.544,223.648z M422.755,131.672c-16.267,16.267-44.294,18.185-60.185,17.798
			c-0.349-15.924,1.602-44.069,17.758-60.225c16.268-16.267,44.298-18.186,60.185-17.798
			C440.86,87.372,438.911,115.516,422.755,131.672z"/>
	</g>
</g>
<g>
</g>
<g>
</g>
<g>
</g>
<g>
</g>
<g>
</g>
<g>
</g>
<g>
</g>
<g>
</g>
<g>
</g>
<g>
</g>
<g>
</g>
<g>
</g>
<g>
</g>
<g>
</g>
<g>
</g>
</svg>
