<svg id="Capa_1" enable-background="new 0 0 512.001 512.001" height="512" viewBox="0 0 512.001 512.001" width="512" xmlns="http://www.w3.org/2000/svg"><g id="XMLID_48_"><path id="XMLID_171_" d="m511.138 346.178-34.333-77.207c-1.605-3.61-5.186-5.936-9.138-5.936h-2.958c23.4-10.927 38.292-34.112 38.292-60.249v-21.679c5.786-14.314 8.815-29.441 8.991-44.993.062-5.523-4.363-10.05-9.886-10.113-.039-.001-.077-.001-.115-.001-5.47 0-9.935 4.403-9.997 9.887-.127 11.198-2.01 22.129-5.605 32.586-47.848-3.037-87.184-38.772-95.679-85.037l44.931 24.986c3.422 1.902 7.64 1.633 10.793-.689 3.151-2.323 4.658-6.271 3.854-10.104l-11.238-53.555c8.323 4.705 16.023 10.559 22.77 17.358 3.891 3.92 10.222 3.944 14.142.053s3.944-10.222.054-14.142c-13.312-13.413-29.744-23.748-47.52-29.887-3.404-1.175-7.176-.431-9.878 1.951-2.701 2.381-3.913 6.031-3.174 9.555l10.771 51.336-42.343-23.548c-3.108-1.728-6.901-1.676-9.96.138s-4.925 5.115-4.9 8.671c.229 32.938 13.227 63.868 36.6 87.092 9.983 9.919 21.364 17.928 33.69 23.859v29.408l-32.924 12.043c-1.84-2.469-3.871-4.84-6.112-7.08-14.65-14.65-30.994-26.598-48.405-35.852 5.069-5.374 8.195-12.6 8.195-20.553 0-16.542-13.458-30-30-30s-30 13.458-30 30c0 .515.023 1.025.049 1.534-29.03-6.381-59.192-6.378-88.222.005.026-.511.061-1.02.061-1.538 0-16.542-13.458-30-30-30s-30 13.458-30 30c0 7.954 3.123 15.184 8.193 20.559-17.41 9.254-33.754 21.197-48.404 35.847-2.24 2.24-4.271 4.61-6.111 7.079l-32.922-12.045v-29.407c12.327-5.931 23.707-13.94 33.69-23.859 23.373-23.224 36.372-54.153 36.601-87.092.024-3.556-1.842-6.858-4.9-8.671-3.061-1.814-6.852-1.865-9.96-.138l-42.345 23.547 10.771-51.336c.739-3.524-.474-7.174-3.174-9.555-2.702-2.382-6.476-3.125-9.878-1.951-49.947 17.252-83.504 64.362-83.504 117.228 0 16.054 3.033 31.662 9 46.423v21.68c0 26.136 14.892 49.322 38.291 60.249h-2.958c-3.951 0-7.532 2.327-9.138 5.936l-34.333 77.207c-1.809 4.069-.71 8.843 2.695 11.712 1.852 1.56 4.144 2.352 6.444 2.352 1.93 0 3.866-.558 5.555-1.686l53.145-35.521h30.941l-41.942 24.212c-3.448 1.99-5.387 5.835-4.937 9.79l9.391 82.613c.506 4.454 3.914 8.027 8.34 8.743.536.086 1.07.128 1.6.128 3.846 0 7.415-2.223 9.07-5.798l25.57-55.22 57.703-33.016 5.886 5.886-41.429 41.428c-2.899 2.9-3.735 7.277-2.107 11.041l32.967 76.22c1.6 3.697 5.232 6.031 9.174 6.031.46 0 .926-.032 1.392-.097 4.455-.623 7.945-4.145 8.529-8.606l7.476-57.165 34.895-34.895c11.276 3.687 23.028 5.535 34.78 5.535s23.504-1.848 34.78-5.535l34.896 34.895 7.476 57.165c.584 4.461 4.074 7.983 8.529 8.606.467.065.931.097 1.392.097 3.94 0 7.574-2.334 9.174-6.031l32.967-76.22c1.628-3.764.792-8.141-2.107-11.041l-41.429-41.428 5.886-5.886 57.703 33.016 25.57 55.22c1.655 3.576 5.225 5.799 9.07 5.798.529 0 1.064-.042 1.6-.128 4.426-.715 7.834-4.289 8.34-8.743l9.391-82.613c.45-3.955-1.488-7.8-4.937-9.79l-41.942-24.212h30.941l53.145 35.521c1.688 1.129 3.625 1.686 5.555 1.686 2.301 0 4.593-.792 6.444-2.352 3.403-2.869 4.502-7.644 2.693-11.712zm-28.137-157.897v14.505c0 8.465-2.233 16.489-6.255 23.424l-17.444-17.444v-24.701c7.685 2.157 15.614 3.574 23.699 4.216zm-36.258 36.211 16.433 16.434c-3 2.088-6.281 3.855-9.811 5.232l-34.386 13.413c.4-8.001-.695-16.059-3.261-23.729zm-116.687-80.017c5.514 0 10 4.486 10 10s-4.486 10-10 10-10-4.486-10-10 4.487-10 10-10zm-148.111 0c5.514 0 10 4.486 10 10s-4.486 10-10 10-10-4.486-10-10 4.486-10 10-10zm-88.923 115.094-34.386-13.412c-3.53-1.377-6.811-3.144-9.812-5.232l16.433-16.434 31.025 11.348c-2.565 7.671-3.66 15.729-3.26 23.73zm-40.322-50.804-17.444 17.445c-4.022-6.935-6.255-14.958-6.255-23.424v-14.505c8.085-.642 16.013-2.059 23.699-4.217zm20.258-164.726-11.244 53.59c-.804 3.833.703 7.781 3.854 10.104 3.153 2.323 7.371 2.593 10.793.689l44.932-24.986c-8.5 46.292-47.865 82.042-95.679 85.042-3.728-10.836-5.613-22.175-5.613-33.796 0-38.002 20.675-72.46 52.957-90.643zm-7.29 258.996c-1.978 0-3.912.587-5.557 1.686l-26.927 17.997 17.646-39.683h47.892c3.096 6.797 7.427 13.165 13.011 18.75l1.251 1.25zm28.367 68.693c-1.801 1.03-3.236 2.595-4.108 4.478l-11.927 25.756-4.623-40.671 62.047-35.818 14.358 14.358zm75.744 45.759c-1.559 1.559-2.559 3.589-2.845 5.774l-3.215 24.587-15.877-36.708 36.958-36.958c5.296 4.41 10.906 8.257 16.753 11.53zm21.612-64.331-65.515-65.514c-17.264-17.265-17.264-45.356.001-62.62 35.875-35.875 82.999-53.812 130.123-53.812s94.249 17.938 130.124 53.812c17.264 17.264 17.264 45.355 0 62.619l-65.515 65.514c-35.624 35.627-93.593 35.627-129.218.001zm156.891 94.692-3.215-24.587c-.286-2.186-1.286-4.216-2.845-5.774l-31.774-31.774c5.847-3.274 11.456-7.121 16.753-11.53l36.958 36.958zm85.72-45.886-11.927-25.757c-.872-1.882-2.308-3.447-4.108-4.478l-55.747-31.896 14.359-14.358 62.047 35.818zm17.888-97.241c-1.645-1.099-3.578-1.686-5.557-1.686h-47.317l1.251-1.25c0-.001 0-.001 0-.001 5.584-5.584 9.915-11.952 13.011-18.749h47.892l17.646 39.683z"/><g id="XMLID_91_"><g id="XMLID_228_"><path id="XMLID_337_" d="m493.711 101.94c-2.63 0-5.21-1.07-7.07-2.93-1.859-1.86-2.93-4.44-2.93-7.07s1.07-5.21 2.93-7.07 4.44-2.93 7.07-2.93c2.64 0 5.22 1.07 7.08 2.93 1.859 1.86 2.93 4.441 2.93 7.07 0 2.63-1.07 5.21-2.93 7.07-1.871 1.86-4.441 2.93-7.08 2.93z"/></g></g></g></svg>