<svg id="Capa_1" enable-background="new 0 0 511.997 511.997" height="512" viewBox="0 0 511.997 511.997" width="512" xmlns="http://www.w3.org/2000/svg"><g><path d="m390.129 231.609c5.37-6.117 5.697-15.264.777-21.748-9.892-13.04-36.483-43.498-69.674-44.685-20.054-.724-36.994 3.909-49.004 13.378-11.453 9.029-18.056 22.271-18.592 37.287-.537 15.016 5.104 28.696 15.882 38.52 11.304 10.302 27.876 16.126 47.924 16.843.676.025 1.352.036 2.033.036 8.94 0 18.186-2.091 27.514-6.226 3.787-1.678 5.496-6.109 3.817-9.896-1.678-3.787-6.106-5.494-9.896-3.817-7.94 3.52-15.652 5.172-22.932 4.912-16.45-.588-29.713-5.063-38.356-12.939-7.576-6.905-11.378-16.206-10.996-26.897.382-10.692 4.839-19.698 12.889-26.044 9.183-7.24 22.734-10.753 39.181-10.168 26.771.957 49.662 27.425 58.26 38.76.641.844.6 1.99-.1 2.787-2.742 3.124-7.177 7.879-12.733 12.796-3.102 2.745-3.392 7.485-.646 10.587s7.484 3.392 10.587.646c6.141-5.433 11.039-10.684 14.065-14.132z"/><path d="m418.651 121.955c.667 17.492 5.804 31.963 14.856 41.85 8.279 9.042 19.634 13.957 32.139 13.957.608 0 1.22-.012 1.833-.035 13.226-.503 24.88-6.351 32.816-16.465 8.275-10.547 12.296-25.367 11.63-42.858-.456-11.996-6.128-35.824-38.984-60.629-5.983-4.516-14.406-4.196-20.029.763-10.668 9.409-35.365 34.425-34.261 63.417zm44.184-52.169c.314-.277.734-.293 1.069-.041 9.646 7.282 32.174 26.658 33.033 49.229.529 13.894-2.39 25.314-8.442 33.028-5.245 6.685-12.709 10.397-21.585 10.735-19.536.733-32.27-15.102-33.27-41.354v.001c-.859-22.572 20.131-43.603 29.195-51.598z"/><path d="m177.056 354.577c12.678-10.352 42.166-38.017 42.166-71.226 0-20.061-5.228-36.83-15.121-48.495-9.432-11.123-22.901-17.248-37.927-17.248s-28.495 6.125-37.927 17.248c-9.892 11.665-15.121 28.435-15.121 48.495 0 33.211 29.488 60.874 42.167 71.227 3.152 2.574 7.017 3.861 10.881 3.861 3.865-.001 7.729-1.288 10.882-3.862zm-12.276-11.619c-11.021-8.999-36.654-32.82-36.654-59.607 0-31.299 14.579-50.743 38.048-50.743s38.048 19.444 38.048 50.743c0 26.786-25.633 50.609-36.653 59.607-.822.671-1.969.67-2.789 0z"/><path d="m457.477 263.497c-13.92-4.343-28.578-2.306-41.268 5.739-12.691 8.045-20.787 20.431-22.798 34.874-2.109 15.148 2.454 32.111 13.194 49.054 17.781 28.049 57.498 35.626 73.749 37.581.684.082 1.365.122 2.041.122 7.311 0 13.988-4.705 16.339-11.774 5.165-15.531 15.26-54.684-2.521-82.734-10.741-16.943-24.136-28.306-38.736-32.862zm27.024 110.862c-.335 1.006-1.307 1.62-2.355 1.493-14.126-1.7-48.53-8.095-62.872-30.719-16.758-26.435-14.855-50.663 4.966-63.229 6.025-3.819 12.317-5.682 18.629-5.682 14.455 0 29.01 9.768 40.674 28.167 14.343 22.626 5.448 56.47.958 69.97z"/><path d="m317.142 110.099c6.199.851 11.883 1.226 17.095 1.226 25.646 0 39.753-9.086 46.353-15.23 11.568-10.769 18.438-22.839 19.865-34.905 1.376-11.625-2.387-22.884-10.595-31.701s-19.159-13.37-30.863-12.832c-12.137.563-24.666 6.553-36.234 17.322-7.941 7.392-20.903 25.314-18.501 62.286.459 7.055 5.876 12.873 12.88 13.834zm15.841-65.141c8.933-8.316 18.168-12.921 26.708-13.316.399-.019.794-.028 1.189-.028 6.852 0 13.056 2.784 18.001 8.096 11.53 12.385 8.268 29.784-8.513 45.406-14.49 13.489-40.624 11.572-51.138 10.176-.691-10.64-.736-36.846 13.753-50.334z"/><path d="m300.276 320.349c-7.25-1.911-14.922 1.586-18.241 8.309-6.299 12.756-19.65 45.275-7.623 71.677 7.256 15.93 17.501 27.368 29.63 33.078 5.81 2.735 11.97 4.103 18.184 4.103 6.225 0 12.503-1.373 18.531-4.119 12.045-5.486 20.607-15.32 24.109-27.689 3.652-12.898 1.747-28.136-5.509-44.065-4.976-10.926-19.268-30.817-59.081-41.294zm34.263 99.397c-8.084 3.682-16.419 3.715-24.107.096-8.871-4.177-16.605-13.072-22.369-25.725-9.363-20.557 2.072-47.981 7.423-58.817.149-.303.426-.475.74-.475.076 0 .155.01.234.031 11.688 3.076 39.885 12.449 49.248 33.004 10.888 23.906 6.609 43.788-11.169 51.886z"/><path d="m232.747 412.888c-11.252-10.427-23.434-16.213-35.229-16.732-11.371-.495-22.036 3.957-30.003 12.555-7.967 8.597-11.602 19.56-10.237 30.872 1.415 11.721 8.11 23.428 19.362 33.855 6.403 5.933 20.044 14.688 44.777 14.686 5.113 0 10.705-.375 16.8-1.226 6.886-.962 12.199-6.697 12.634-13.635 2.249-35.852-10.378-53.216-18.104-60.375zm3.15 59.188c-10.328 1.417-35.212 3.192-49.061-9.642-8.611-7.979-13.683-16.503-14.666-24.649-.84-6.963 1.354-13.491 6.348-18.879 4.734-5.11 10.683-7.788 17.26-7.788.358 0 .719.008 1.081.024 8.198.361 17.083 4.77 25.693 12.749 13.849 12.833 13.971 37.779 13.345 48.185z"/><path d="m454.765 428.31c-11.125-3.952-24.59-3.167-38.935 2.267-22.95 8.693-34.578 34.523-39.466 49.146-2.205 6.593.564 13.904 6.585 17.384 18.337 10.597 33.221 13.703 44.369 13.702 7.76 0 13.71-1.505 17.753-3.037 14.346-5.434 24.95-13.767 30.666-24.097 5.516-9.968 6.267-21.495 2.115-32.456-4.153-10.96-12.351-19.096-23.087-22.909zm-15.008 65.435c-17.655 6.688-40.05-4.308-49.089-9.502 3.331-9.88 12.818-32.951 30.475-39.639 20.587-7.797 36.941-3.227 42.681 11.929s-3.482 29.415-24.067 37.212z"/><path d="m40.645 106.847c2.418 1.543 5.16 2.295 7.887 2.295 3.882 0 7.734-1.524 10.577-4.458 24.992-25.803 26.668-47.206 25.443-57.668-1.785-15.236-7.29-27.547-15.922-35.602-8.33-7.773-19.329-11.301-30.969-9.939-11.641 1.364-21.526 7.339-27.834 16.827-6.536 9.832-9.048 23.082-7.264 38.318 2.856 24.374 25.085 41.931 38.082 50.227zm-18.327-80.24c3.883-5.84 9.791-9.379 17.087-10.233 1.074-.126 2.126-.188 3.159-.188 14.442 0 24.698 12.171 27.088 32.576 2.198 18.752-13.911 37.802-21.145 45.308-8.773-5.631-28.848-20.441-31.045-39.194-1.366-11.661.313-21.436 4.856-28.269z"/><path d="m80.116 366.051c-7.924-.756-15.423.424-22.293 3.498-3.781 1.691-5.475 6.128-3.784 9.909 1.692 3.781 6.129 5.475 9.909 3.783 4.477-2.003 9.439-2.763 14.749-2.257 8.843.84 16.084 4.97 20.942 11.941 5.605 8.044 7.873 19.613 6.557 33.454-2.137 22.486-25.727 40.553-35.77 47.277-.35.233-.768.193-1.065-.102-8.597-8.496-28.361-30.682-26.224-53.169.666-7.008 2.122-13.293 4.327-18.68 1.569-3.834-.266-8.213-4.1-9.782-3.833-1.569-8.213.267-9.782 4.1-2.763 6.751-4.572 14.47-5.377 22.943-2.745 28.882 20.494 55.258 30.612 65.257 3.045 3.01 7.088 4.56 11.157 4.56 3.055 0 6.125-.875 8.797-2.664 34.209-22.903 41.222-46.372 42.358-58.322 1.656-17.426-1.519-32.45-9.183-43.448-7.35-10.548-18.653-17.046-31.83-18.298z"/><path d="m83.202 245.558c14.533-9.757 24.146-21.731 27.802-34.628 3.506-12.369 1.373-25.232-6.005-36.221s-18.477-17.832-31.251-19.27c-13.322-1.496-28.044 2.866-42.577 12.623-24.087 16.173-29.775 50.862-31.102 65.026-.7 7.464 3.999 14.463 11.172 16.641 13.695 4.159 25.358 5.73 35.169 5.73 18.409 0 30.29-5.535 36.792-9.901zm-68.199-11.07c1.127-12.033 5.775-41.38 24.528-53.972 10.282-6.903 20.229-10.334 29.015-10.334 9.851 0 18.243 4.316 23.999 12.889 4.951 7.375 6.344 15.594 4.026 23.769-2.673 9.434-10.188 18.516-21.731 26.266-18.753 12.591-47.676 5.783-59.241 2.271-.401-.122-.635-.471-.596-.889z"/><path d="m156.596 152.887c6.779 3.345 13.911 5.024 21.007 5.024 6.148 0 12.27-1.261 18.105-3.791 13.146-5.699 24.481-17.6 32.779-34.416 13.746-27.855.498-63.185-5.837-77.082-3.24-7.107-11.118-10.994-18.727-9.241-14.883 3.426-50.982 14.404-64.728 42.26-8.298 16.817-10.848 33.053-7.374 46.953 3.324 13.291 12.122 24.049 24.775 30.293zm-3.948-70.608c10.904-22.096 41.845-31.334 54.643-34.281.718-.165 1.407.175 1.712.845 5.446 11.95 16.937 42.128 6.034 64.223-12.712 25.761-32.563 35.863-51.803 26.37-19.241-9.496-23.297-31.397-10.586-57.157z"/></g></svg>