<svg id="Capa_1" enable-background="new 0 0 512 512" height="512" viewBox="0 0 512 512" width="512" xmlns="http://www.w3.org/2000/svg"><path d="m493.628 199.641c-23.244-27.572-49.837-23.162-75.553-18.9-13.255 2.198-26.962 4.469-41.257 2.924-1.916-.207-3.792-.467-5.635-.769 6.966-10.032 12.33-20.766 15.998-32.037 1.284-3.947-.874-8.187-4.82-9.471-3.948-1.285-8.187.874-9.471 4.82-3.8 11.677-9.705 22.726-17.571 32.911-7.004-2.145-13.606-4.723-20.092-7.259-25.48-9.963-49.582-19.361-82.575 5.688-9.588-11.123-21.726-18.87-35.589-22.478-42.14-10.96-60.72 7.778-80.39 27.621-.306.309-.614.619-.921.929-18.025-26.417-20.387-57.032-5.401-78.214 19.775-27.952 38.528-26.834 64.177-24.548.361 11.928 4.073 21.188 11.104 27.569 8.459 7.677 20.323 9.537 31.362 9 3.87-.188 7.723-.66 11.538-1.324 19.902-3.46 33.067-11.034 39.131-22.512 4.47-8.463 4.826-18.754 1.132-30.066 21.785-10.418 38.139-17.212 60.076-2.619 18.585 12.36 29.036 33.511 28.676 58.032-.061 4.15 3.253 7.563 7.403 7.624.038.001.075.001.113.001 4.098 0 7.451-3.292 7.511-7.404.438-29.729-12.458-55.522-35.38-70.767-30.027-19.969-54.325-8.3-77.824 2.986-12.111 5.817-24.634 11.831-38.792 14.345-15.606 2.771-29.65 1.515-43.233.299-27.829-2.492-54.114-4.844-79.264 30.703-10.279 14.529-14.448 32.27-12.057 51.303 2.006 15.967 8.483 31.818 18.818 46.219-6.269 5.763-13.152 11.301-21.414 16.085-12.444 7.204-25.895 10.679-38.904 14.039-25.239 6.519-51.338 13.26-61.421 47.884-4.603 15.804-4.077 32.445 1.519 48.123 1.449 4.06 6.178 6.089 10.124 4.343 3.55-1.571 5.334-5.742 4.03-9.395-4.526-12.681-4.956-26.121-1.244-38.869 7.367-25.294 24.247-30.644 47.618-36.722 4.468 11.029 11.374 18.667 20.247 22.255 3.879 1.569 8.058 2.351 12.529 2.351 9.399 0 20.077-3.463 31.899-10.364 16.813-9.816 26.182-21.094 27.848-33.524 1.261-9.411-1.869-18.883-9.282-28.234 18.138-18.283 31.752-31.226 64.887-22.602 17.213 4.478 31.194 17.313 39.367 36.141 11.475 26.435 9.437 60.367-5.192 89.36-11.877 2.081-23.667 1.773-35.128 1.463-26.058-.703-53.004-1.427-72.253 29.069-8.868 14.048-12.947 30.343-11.796 47.122.007.098.018.196.025.293-37.949 3.721-74.097-9.046-95.641-34.175-2.701-3.152-7.445-3.516-10.596-.813-3.151 2.701-3.515 7.445-.814 10.595 21.939 25.589 56.722 40.055 94.184 40.055 5.049 0 10.15-.284 15.272-.817 2.737 10.859 7.573 21.517 14.315 31.417 13.636 20.025 33.787 35.628 58.275 45.125 17.111 6.636 35.898 9.986 55.501 9.986 11.205 0 22.679-1.095 34.255-3.296 20.38-3.876 38.999-10.807 55.339-20.601 3.559-2.133 4.716-6.748 2.582-10.308-2.134-3.561-6.749-4.716-10.309-2.582-14.818 8.881-31.783 15.182-50.42 18.726-29.06 5.527-57.248 3.474-81.514-5.936-21.638-8.392-39.373-22.075-51.288-39.572-17.35-25.478-19.093-54.337-4.663-77.199 14.062-22.279 31.764-22.762 55.905-22.152 1.25 11.834 5.779 21.082 13.317 26.98 6.313 4.94 14.488 7.415 24.429 7.415 6.158 0 12.996-.95 20.485-2.852 18.87-4.793 30.989-13.049 36.021-24.535 3.809-8.697 3.415-18.664-1.128-29.698 22.479-12.565 39.137-21.248 68.606-3.814 15.658 9.263 25.609 25.903 28.021 46.855 3.518 30.56-9.854 64.431-34.897 88.394-2.998 2.87-3.103 7.626-.234 10.625 2.87 2.998 7.627 3.104 10.624.234 20.754-19.859 34.205-45.01 38.566-70.859 45.04-10.901 80.868-40.945 94.199-79.394 10.262-29.602 5.5-59.206-13.065-81.228zm-250.422-119.121c11.663-2.071 22.224-6.162 31.865-10.516 1.523 5.463 1.977 11.508-.696 16.567-3.724 7.05-13.55 12.141-28.417 14.725-14.381 2.5-24.549 1.156-30.225-3.998-3.608-3.275-5.654-8.384-6.117-15.236 10.327.608 21.525.6 33.59-1.542zm-100.428 137.936c-1.018 7.599-7.925 15.182-20.53 22.54-13.031 7.608-23.825 10.048-31.217 7.06-5.304-2.146-8.855-7.06-11.212-12.218 10.177-2.885 20.888-6.566 31.139-12.502 10.605-6.139 19.171-13.351 26.674-20.473 4.064 5.538 5.793 10.763 5.146 15.593zm265.958-21.033c-.065 5.671-1.321 11.601-5.301 15.711-5.547 5.726-16.405 7.866-31.401 6.192-14.504-1.622-23.892-5.758-27.901-12.293-2.548-4.154-3.084-9.631-1.612-16.339 9.745 3.471 20.498 6.596 32.681 7.913 11.777 1.276 23.061.302 33.534-1.184zm-119.565 115.07c-3.076 7.023-11.809 12.406-25.954 15.998-14.625 3.715-25.674 3.081-31.953-1.832-4.506-3.526-6.562-9.229-7.403-14.837 10.578.036 21.889-.545 33.38-3.42 11.888-2.973 22.112-7.54 31.289-12.314 2.376 6.444 2.596 11.943.641 16.405zm203.323-36.551c-11.168 32.211-40.778 57.758-78.486 68.384.103-4.743-.102-9.479-.643-14.178-2.962-25.735-15.498-46.358-35.299-58.072-37.477-22.171-60.509-9.286-84.891 4.357-8.443 4.725-17.097 9.557-26.9 13.344 11.732-30.148 11.974-62.782.156-90.005-1.518-3.497-3.209-6.824-5.057-9.979 25.975-19.906 43.457-13.67 66.998-4.475-2.989 11.552-2.014 21.481 2.951 29.574 6.558 10.689 19.694 17.207 39.042 19.369 3.868.432 7.536.649 11.007.649 14.541-.001 25.567-3.79 32.859-11.318 6.658-6.874 9.878-16.655 9.496-28.549 23.83-3.909 41.431-5.856 58.411 14.286 15.063 17.868 18.839 42.148 10.356 66.613z"/></svg>