<svg id="Capa_1" enable-background="new 0 0 512 512" height="512" viewBox="0 0 512 512" width="512" xmlns="http://www.w3.org/2000/svg"><g><path d="m486.848 415.203-120.084-169.367c-13.158-18.555-19.609-27.817-22.461-35.557-2.657-7.209-2.514-14.249-2.199-29.673.118-5.796.265-13.01.265-21.592v-72.933c15.464-2.49 27.315-15.928 27.315-32.088v-21.486c0-17.925-14.579-32.507-32.498-32.507h-160.432c-17.919 0-32.498 14.582-32.498 32.507v21.486c0 15.481 10.878 28.46 25.388 31.713v73.309c0 8.555.139 15.45.262 21.533.313 15.451.455 22.502-2.203 29.718-2.849 7.732-9.3 17.003-22.455 35.57l-120.081 169.365c-17.938 25.283-23.006 52.75-13.227 71.68 5.921 11.459 19.854 25.119 52.608 25.119h53.609c5.523 0 10-4.478 10-10s-4.477-10-10-10h-53.609c-12.523 0-28.733-2.48-34.838-14.299-6.236-12.07-1.617-32.061 11.771-50.93l120.085-169.37c11.11-15.682 17.966-25.587 22.162-34.02h144.54c4.197 8.432 11.057 18.336 22.181 34.022l120.082 169.367c13.38 18.881 17.996 38.878 11.758 50.943-6.105 11.808-22.307 14.287-34.824 14.287h-239.543c-5.523 0-10 4.478-10 10s4.477 10 10 10h239.542c32.74 0 46.67-13.65 52.59-25.102 9.783-18.922 4.723-46.394-13.206-71.695zm-322.592-361.21v-21.486c0-6.896 5.606-12.507 12.498-12.507h160.432c6.892 0 12.498 5.61 12.498 12.507v21.486c0 6.896-5.606 12.506-12.498 12.506h-160.432c-6.891 0-12.498-5.61-12.498-12.506zm25.274 149.389c.628-6.247.57-13.492.373-23.238-.121-5.988-.258-12.776-.258-21.129v-72.516h132.724v72.516c0 8.379-.139 15.182-.261 21.185-.198 9.719-.257 16.949.367 23.183h-132.945z"/><path d="m222.966 376.002c0-18.189-14.794-32.988-32.979-32.988h-11.249c-7.157 0-12.979-5.826-12.979-12.988 0-7.146 5.823-12.96 12.979-12.96h34.228c5.523 0 10-4.478 10-10s-4.477-10-10-10h-34.228c-18.185 0-32.979 14.786-32.979 32.96 0 18.189 14.794 32.988 32.979 32.988h11.249c7.157 0 12.979 5.826 12.979 12.988 0 7.146-5.823 12.961-12.979 12.961h-34.228c-5.523 0-10 4.478-10 10s4.477 10 10 10h34.228c18.184 0 32.979-14.786 32.979-32.961z"/><path d="m318.936 370.361v-34.695c0-21.284-17.312-38.601-38.59-38.601-21.294 0-38.618 17.316-38.618 38.601v34.695c0 21.285 17.324 38.602 38.618 38.602 21.278 0 38.59-17.317 38.59-38.602zm-57.208 0v-34.695c0-10.257 8.352-18.601 18.618-18.601 10.25 0 18.59 8.344 18.59 18.601v34.695c0 10.257-8.339 18.602-18.59 18.602-10.266 0-18.618-8.345-18.618-18.602z"/><path d="m334.508 449.603c-2.861 2.859-3.717 7.161-2.169 10.898s5.194 6.174 9.239 6.174h46.639c5.523 0 10-4.478 10-10s-4.477-10-10-10h-22.492l23.172-23.165c12.442-12.488 12.442-32.808-.019-45.315-8.299-8.285-18.41-11.571-28.47-9.255-11.272 2.597-20.7 11.94-25.22 24.993-1.807 5.219.958 10.915 6.177 12.722 5.222 1.811 10.915-.959 12.722-6.177 2.185-6.31 6.429-11.039 10.811-12.049 3.193-.734 6.508.583 9.831 3.9 4.687 4.705 4.687 12.36.014 17.051z"/><path d="m163.04 492c-5.523 0-10 4.478-10 10s4.477 10 10 10h.028c5.523 0 9.986-4.478 9.986-10s-4.491-10-10.014-10z"/></g></svg>