<svg height="480pt" viewBox="0 -20 480 480" width="480pt" xmlns="http://www.w3.org/2000/svg"><path d="m480 60.121094v-16h-28.6875l26.34375-26.34375-11.3125-11.3125-26.34375 26.34375v-28.6875h-16v44.6875l-16 16v-28.6875h-16v44.6875l-16 16v-28.6875h-16v44.6875l-16 16v-28.6875h-16v44.6875l-16 16-16-16v-44.6875h-16v28.6875l-16-16v-44.6875h-16v28.6875l-16-16v-44.6875h-16v28.6875l-26.34375-26.34375c-1.5-1.5-3.535156-2.34375-5.65625-2.34375h-3.472656l-21.671875-36.121094-13.710938 8.238281 16.726563 27.882813h-29.34375l-21.671875-36.121094-13.710938 8.238281 16.726563 27.882813h-29.34375l-21.671875-36.121094-13.710938 8.238281 16.726563 27.882813h-29.34375l-21.671875-36.121094-13.710938 8.238281 16.726563 27.882813h-17.871094v16h17.871094l-16.726563 27.878906 13.710938 8.238281 21.671875-36.117187h29.34375l-16.726563 27.878906 13.710938 8.238281 21.671875-36.117187h29.34375l-16.726563 27.878906 13.710938 8.238281 21.671875-36.117187h29.34375l-16.726563 27.878906 13.710938 8.238281 21.671875-36.117187h.160156l24 24h-28.6875v16h44.6875l16 16h-28.6875v16h44.6875l43.671875 43.671875-28.191406 7.039062c-4.730469-9.703125-12.632813-17.5-22.398438-22.097656l-71.539062-33.847656c-1.179688-.574219-2.488281-.835938-3.796875-.757813l-79.050782 3.800782c-26.476562 1.269531-46.914062 23.761718-45.644531 50.242187.117188 2.445313.421875 4.878906.910157 7.277344-13.992188 14.167969-16.117188 36.214843-5.089844 52.796875l.800781 1.195312c2.835937 4.171875 6.863281 7.398438 11.550781 9.253906l5.976563 16.710938c2.550781 6.996094 8.210937 12.40625 15.3125 14.632812l10.257812 19.808594c2.671875 5.109375 7.097657 9.085938 12.464844 11.199219 2.183594 4.839844 6.277344 13.890625 8.078125 17.601563 4.5 9.082031 13.035156 15.492187 23.007812 17.289062 1.90625.339844 3.839844.515625 5.777344.519531 7.679688.039063 15.078125-2.882812 20.65625-8.160156 3.460938-3.273437 11.117188-11.578125 14.957032-15.785156 5.914062-.425781 11.449218-3.0625 15.503906-7.382813l14.65625-14.402344c1.585937 2.429688 3.421875 4.6875 5.472656 6.738282l1.023438 1.023437c3.855468 3.824219 8.847656 6.296875 14.226562 7.046875l7.375 13.738282-59.105469 59.886718-18.695312-31.199218-13.710938 8.238281 16.726563 27.921875h-21.34375l-21.671875-36.121094-13.710938 8.238281 16.726563 27.882813h-29.34375l-21.671875-36.121094-13.710938 8.238281 16.726563 27.882813h-29.34375l-21.671875-36.121094-13.710938 8.238281 16.726563 27.882813h-17.871094v16h17.871094l-16.726563 27.878906 13.710938 8.238281 21.671875-36.117187h29.34375l-16.726563 27.878906 13.710938 8.238281 21.671875-36.117187h29.34375l-16.726563 27.878906 13.710938 8.238281 21.671875-36.117187h21.34375l-16.726563 27.878906 13.710938 8.238281 23.511719-39.199219 17.632812-17.863281v28.945313h16v-45.167969l32.449219-32.914063c2.132812.945313 4.394531 1.566407 6.710937 1.847657l13.953125 17.425781c4.113281 5.074219 10.121094 8.253906 16.628907 8.800781 2.609374 4.648438 6.730468 11.878907 8.921874 15.070313 5.695313 8.113281 14.992188 12.9375 24.902344 12.929687h.28125c10.042969.089844 19.511719-4.679687 25.417969-12.800781 2.75-3.871094 8.671875-13.480469 11.636719-18.351562 5.828125-1.6875 10.800781-5.507813 13.9375-10.695313l7.289062-12.152344c7.25-.082031 14.082032-3.425781 18.589844-9.105469l13.136719-17.113281c1.496093.164063 3.003906.179688 4.503906.050781 6.996094-.667968 13.390625-4.230468 17.640625-9.824218 10.722656-14.433594 11.109375-34.078125.96875-48.921875l-1.753906-2.222657c10.410156-24.378906-.914063-52.582031-25.292969-62.992187-2.335937-1-4.746094-1.808594-7.210937-2.425781l-63.070313-15.765625 11.671875-11.671875h44.6875v-16h-28.6875l16-16h44.6875v-16h-28.6875l16-16h44.6875v-16h-28.6875l16-16zm-413.992188 167.199218c-1.203124.953126-2.753906 1.34375-4.265624 1.078126-2.472657-.386719-4.675782-1.785157-6.085938-3.855469l-.800781-1.199219c-5.921875-8.902344-5.785157-20.523438.34375-29.289062 1.101562.6875 2.277343 1.246093 3.503906 1.664062 2.261719.761719 4.652344 1.035156 7.023437.800781l12 18.402344c-4.335937 4.847656-9.46875 10.453125-11.71875 12.398437zm21.601563 30.121094c-3.382813 2.839844-8.429687 2.402344-11.273437-.980468-.609376-.726563-1.089844-1.558594-1.40625-2.453126l-4-11.273437c1.976562-.773437 3.824218-1.851563 5.46875-3.199219 3.472656-3.203125 6.765624-6.59375 9.875-10.152344 3.839843 6.679688 8.710937 14.921876 11.710937 19.136719zm50.503906-29.816406c-6.578125 5.070312-14.867187 11.320312-18.632812 13.597656-2.785157 1.496094-6.234375.828125-8.257813-1.597656-2.605468-3.5625-7.871094-12.527344-12-19.738281l21.753906-8.09375zm-.402343-22.191406 20.367187-13.601563 13.488281 17.351563-19.679687 9.382812zm-46.832032.445312-10.710937-16.445312 14.679687-9.800782 13.242188 19.839844zm21.289063 83.113282c-1.886719 1.625-4.421875 2.277343-6.855469 1.769531l-.03125.023437c-2.445312-.484375-4.539062-2.058594-5.679688-4.273437l-7.015624-13.601563c1.933593-.871094 3.742187-1.996094 5.390624-3.335937l13.945313-12.085938h.125l9.554687 19.296875c.542969.953125 1.15625 1.871094 1.832032 2.742188zm32.265625 31.679687-.035156.023437c-3.386719 3.121094-8.0625 4.433594-12.582032 3.527344-4.972656-.871094-9.234375-4.046875-11.496094-8.558594-1.074218-2.191406-2.984374-6.351562-4.800781-10.335937 2.519531-.960937 4.863281-2.332031 6.9375-4.054687l14.71875-12.28125c.351563.078124.671875.253906 1.023438.320312.351562.0625.800781.0625 1.175781.121094l7.394531 14.253906c1.601563 3.015625 3.828125 5.65625 6.535157 7.746094-3.425782 3.695312-7.015626 7.488281-8.871094 9.238281zm3.613281-48.777344c-1.859375 1.566407-4.328125 2.199219-6.710937 1.722657-2.339844-.453126-4.351563-1.9375-5.472657-4.042969l-7.472656-15.101563c4.800781-2.992187 13.363281-9.472656 19.617187-14.3125 3.953126 6.945313 9.449219 16.34375 12.746094 20.929688zm46.257813 6.472657-.03125.007812-20 19.679688c-1.808594 1.980468-4.46875 2.957031-7.128907 2.617187-2.667969-.328125-5-1.960937-6.214843-4.359375l-5.328126-10.289062c.972657-.570313 1.910157-1.203126 2.796876-1.902344l16.578124-14.089844c1.410157.292969 2.839844.453125 4.28125.480469 3.960938.023437 7.851563-1.035157 11.253907-3.0625 1.046875-.632813 2.398437-1.5625 3.871093-2.578125-.753906 4.464844-.78125 9.023437-.078124 13.496094zm-12.046876-24.648438c-2.792968 1.492188-6.246093.800781-8.25-1.648438-2.703124-3.664062-8.222656-13.101562-12.390624-20.421874l19.832031-9.449219 15.253906 20.976562c-5.152344 3.976563-11.535156 8.792969-14.445313 10.542969zm18.542969-42.398438c-.960937 2.296876-1.742187 4.667969-2.335937 7.085938l-8-10.957031c-.058594-.074219-.136719-.105469-.183594-.175781l-24.121094-31.152344c-2.570312-3.3125-7.261718-4.074219-10.753906-1.753906l-30.222656 20.152343-1.289063-.253906-20.160156-30.21875c-2.449219-3.675781-7.414063-4.671875-11.089844-2.222656-.003906.003906-.007812.003906-.011719.007812l-27.90625 18.632813c-.238281.152344-.527343.191406-.796874.109375-.285157-.089844-.5-.3125-.585938-.597657-5.589844-16.765624 3.464844-34.890624 20.230469-40.484374 2.769531-.921876 5.652343-1.460938 8.570312-1.605469l77.039063-3.703125 69.726562 33c5.386719 2.578125 9.925782 6.628906 13.089844 11.6875l-18.726562 4.6875c-14.605469 3.601562-26.644532 13.894531-32.472657 27.761718zm24.269531 82.398438c-2.496093.0625-4.914062-.871094-6.726562-2.589844l-1.023438-1.023437c-7.574218-7.542969-9.667968-18.996094-5.25-28.730469 1.175782.4375 2.394532.742188 3.632813.914062 2.359375.300782 4.757813.097657 7.03125-.59375l15.320313 15.671876c-3.253907 5.601562-7.199219 12.136718-9.023438 14.464843-.988281 1.167969-2.429688 1.855469-3.960938 1.886719zm138.753907-15.726562c-5.457031 6.273437-12.351563 14.015624-15.625 16.992187-2.4375 2.015625-5.96875 2.015625-8.40625 0-3.265625-2.976563-10.160157-10.71875-15.617188-16.992187l19.824219-12.175782zm-4.710938-21.695313 16.886719-16.863281 14.785156 14.78125-15.351562 12.152344zm-30.816406 49.824219-10.058594 13.382812c-3.132812 3.464844-8.484375 3.734375-11.953125.597656-.097656-.085937-.191406-.175781-.285156-.269531l-10.039062-13.96875c4.191406-4 11-11.65625 16.039062-17.464843 5.144531 5.921874 12.128906 13.777343 16.296875 17.722656zm-16.296875-39.402344-16.886719-10.398438 16.886719-16.886718 16.886719 16.886718zm-12.175781 11.296875c-5.457031 6.273437-12.351563 14.015625-15.625 16.992187-2.4375 2.015626-5.96875 2.015626-8.40625 0-3.265625-2.976562-10.160157-10.71875-15.617188-16.992187l19.824219-12.199219zm-50.578125-12.0625-13.726563-14.042969 12.480469-12.476562 16.886719 16.894531zm6.890625 51.199219c-1.601563 2.09375-4.167969 3.222656-6.792969 2.984375-2.492188-.128907-4.769531-1.441407-6.136719-3.527344l-5.855469-10.890625c1.589844-1.101562 3.019532-2.421875 4.242188-3.925781 2.769531-3.820313 5.335938-7.789063 7.6875-11.882813 5.117188 5.867188 11.566406 13.058594 15.351562 16.585938zm30.261719 26.167968c-3.050782 3.535157-8.390626 3.925782-11.925782.871094-.3125-.265625-.605468-.558594-.871094-.871094l-9.53125-11.90625c1.703126-1.21875 3.234376-2.652343 4.5625-4.269531l11.671876-14.664062c.214843 0 .4375-.046875.65625-.066407l12.296874 17.097657c.71875.828125 1.5 1.605469 2.335938 2.320312zm37.824218 24.726563-.007812.007813c-2.894532 3.992187-7.585938 6.273437-12.511719 6.097656-4.699219.09375-9.140625-2.144532-11.863281-5.976563-1.304688-1.910156-3.792969-6.175781-6.085938-10.207031 1.925782-1.292969 3.65625-2.859375 5.132813-4.648438l12-14.921874c.359375 0 .707031.121093 1.066406.121093s.800781-.113281 1.160156-.136719l10.039063 12.5625c2.160156 2.667969 4.863281 4.851563 7.925781 6.398438-2.613281 4.265625-5.382813 8.632812-6.855469 10.703125zm24.898438-27.992187c-1.359375 2.332031-3.789063 3.832031-6.480469 4-2.671875.164062-5.261719-.972657-6.945313-3.054688l-7.304687-9.128906c.886719-.773438 1.71875-1.613282 2.488281-2.503906l11.722656-15.648438 6.703126 10.777344c1.460937 2.332031 3.3125 4.398437 5.480468 6.097656zm27.007812-22.878907c-1.605468 2.09375-4.167968 3.21875-6.792968 2.984375-2.667969-.179687-5.070313-1.679687-6.398438-4l-5.226562-8.390625c.417968-.328125.875-.585937 1.265624-.945312 4-3.648438 11.4375-12 16.800782-18.214844 3.742187 4.542969 8.359375 9.992187 11.789062 13.597656zm35.070313-26.65625c-1.503907 1.972657-3.757813 3.234375-6.222657 3.488281-1.558593.175782-3.121093-.308593-4.304687-1.335937-2.808594-2.625-8.726563-9.648437-13.367187-15.304687l18.984374-15.015626c.667969.03125 1.339844.015626 2.007813-.039062 1.398437-.195312 2.773437-.566406 4.078125-1.105469 5.703125 9.074219 5.238281 20.726563-1.175781 29.3125zm-24.367188-91.449219c17.144531 4.300782 27.554688 21.679688 23.257813 38.824219-.710938 2.835938-1.808594 5.558594-3.257813 8.097657-.132812.265624-.394531.441406-.6875.464843-.292969.046875-.59375-.050781-.800781-.265625l-23.726562-23.726562c-3.125-3.125-8.1875-3.125-11.3125 0l-25.679688 25.679687c-.371094.359375-.960938.359375-1.328125 0l-25.679687-25.679687c-3.125-3.125-8.1875-3.125-11.3125 0l-25.679688 25.679687c-.371094.359375-.960938.359375-1.328125 0l-25.679687-25.679687c-3.125-3.125-8.1875-3.125-11.3125 0l-23.730469 23.726562c-.210938.207032-.503907.304688-.796875.265625-.296875-.023437-.554688-.199219-.6875-.464843-8.773438-15.34375-3.445313-34.890626 11.898437-43.664063 2.539063-1.449219 5.265625-2.546875 8.101563-3.257813l74.910156-18.703124zm0 0"/></svg>